<?xml version="1.0" encoding="UTF-8" standalone="no"?>
<svg
   xmlns:dc="http://purl.org/dc/elements/1.1/"
   xmlns:cc="http://creativecommons.org/ns#"
   xmlns:rdf="http://www.w3.org/1999/02/22-rdf-syntax-ns#"
   xmlns:svg="http://www.w3.org/2000/svg"
   xmlns="http://www.w3.org/2000/svg"
   xmlns:sodipodi="http://sodipodi.sourceforge.net/DTD/sodipodi-0.dtd"
   xmlns:inkscape="http://www.inkscape.org/namespaces/inkscape"
   viewBox="0 0 348 348"
   fill="none"
   version="1.1"
   id="svg6"
   sodipodi:docname="Keypad Directionality.svg"
   inkscape:version="1.0.1 (3bc2e813f5, 2020-09-07)">
  <metadata
     id="metadata12">
    <rdf:RDF>
      <cc:Work
         rdf:about="">
        <dc:format>image/svg+xml</dc:format>
        <dc:type
           rdf:resource="http://purl.org/dc/dcmitype/StillImage" />
      </cc:Work>
    </rdf:RDF>
  </metadata>
  <defs
     id="defs10" />
  <sodipodi:namedview
     pagecolor="#ffffff"
     bordercolor="#666666"
     borderopacity="1"
     objecttolerance="10"
     gridtolerance="10"
     guidetolerance="10"
     inkscape:pageopacity="0"
     inkscape:pageshadow="2"
     inkscape:window-width="1366"
     inkscape:window-height="705"
     id="namedview8"
     showgrid="false"
     inkscape:zoom="1.5273506"
     inkscape:cx="174"
     inkscape:cy="174"
     inkscape:window-x="-8"
     inkscape:window-y="-8"
     inkscape:window-maximized="1"
     inkscape:current-layer="svg6"
     inkscape:document-rotation="0" />
  <path
     d="M5.079 5.776h336.913v337.67H5.08z"
     stroke-width="2"
     stroke="#000"
     id="path2" />
  <path
     id="rect29"
     style="fill:#ffffff;stroke:#000000;stroke-width:1.19654;stroke-miterlimit:4;stroke-dasharray:none;stroke-opacity:1"
     d="m 52.585255,240.09131 h 59.470015 v 59.47001 H 52.585255 Z" />
  <path
     id="rect29-3"
     style="fill:#ffffff;stroke:#000000;stroke-width:1.19654;stroke-miterlimit:4;stroke-dasharray:none;stroke-opacity:1"
     d="M 52.585247,180.62129 H 112.05526 V 240.0913 H 52.585247 Z" />
  <path
     id="rect29-4"
     style="fill:#ffffff;stroke:#000000;stroke-width:1.19654;stroke-miterlimit:4;stroke-dasharray:none;stroke-opacity:1"
     d="M 52.585255,121.15128 H 112.05527 V 180.6213 H 52.585255 Z" />
  <path
     id="rect29-9"
     style="fill:#ffffff;stroke:#000000;stroke-width:1.19654;stroke-miterlimit:4;stroke-dasharray:none;stroke-opacity:1"
     d="m 112.05526,240.09131 h 59.47001 v 59.47001 h -59.47001 z" />
  <path
     id="rect29-3-7"
     style="fill:#ffffff;stroke:#000000;stroke-width:1.19654;stroke-miterlimit:4;stroke-dasharray:none;stroke-opacity:1"
     d="m 112.05526,180.62129 h 59.47001 v 59.47001 h -59.47001 z" />
  <path
     id="rect29-4-3"
     style="fill:#ffffff;stroke:#000000;stroke-width:1.19654;stroke-miterlimit:4;stroke-dasharray:none;stroke-opacity:1"
     d="M 112.05529,121.15128 H 171.5253 V 180.6213 H 112.05529 Z" />
  <path
     id="rect29-7"
     style="fill:#ffffff;stroke:#000000;stroke-width:1.19654;stroke-miterlimit:4;stroke-dasharray:none;stroke-opacity:1"
     d="m 171.52533,240.09131 h 59.47001 v 59.47001 h -59.47001 z" />
  <path
     id="rect29-3-8"
     style="fill:#ffffff;stroke:#000000;stroke-width:1.19654;stroke-miterlimit:4;stroke-dasharray:none;stroke-opacity:1"
     d="m 171.5253,180.62129 h 59.47001 V 240.0913 H 171.5253 Z" />
  <path
     id="rect29-4-5"
     style="fill:#ffffff;stroke:#000000;stroke-width:1.19654;stroke-miterlimit:4;stroke-dasharray:none;stroke-opacity:1"
     d="m 171.52533,121.15128 h 59.47001 v 59.47002 h -59.47001 z" />
  <path
     id="rect29-4-3-7"
     style="fill:#ffffff;stroke:#000000;stroke-width:2.07247;stroke-miterlimit:4;stroke-dasharray:none;stroke-opacity:1"
     d="M 52.585239,55.60408 H 230.99533 v 59.47001 H 52.585239 Z" />
  <path
     id="rect29-4-3-3"
     style="fill:#ffffff;stroke:#000000;stroke-width:2.41594;stroke-miterlimit:4;stroke-dasharray:none;stroke-opacity:1"
     d="m 241.12717,55.54007 h 59.08706 V 299.5582 h -59.08706 z" />
  <g
     aria-label="L!"
     transform="rotate(-90.152347)"
     id="text20"
     style="font-size:68.3706px;line-height:1.25;font-family:Digital-7;-inkscape-font-specification:Digital-7;fill:#000000;stroke-width:1.70926">
    <path
       d="m -201.8189,273.10201 v 13.05257 l -1.86465,4.9724 q -2.48621,-0.62155 -3.10776,-3.10775 V 270.6158 l 1.2431,-1.2431 z m 1.2431,13.05257 h 14.91722 l 4.97241,1.86465 q -0.62155,2.4862 -3.10776,3.10775 h -18.64652 z m -4.97241,-18.02498 -1.2431,-1.2431 v -17.40343 q 0.62155,-2.4862 3.10776,-3.10775 l 1.86465,4.97241 v 13.05257 z"
       style="stroke-width:1.70926"
       id="path156" />
    <path
       d="m -170.74139,269.3727 1.2431,1.2431 v 10.56637 h -4.9724 v -8.08016 z m -3.7293,-4.9724 v -13.05257 l 1.86465,-4.97241 q 2.4862,0.62155 3.10775,3.10775 v 17.40343 l -1.2431,1.2431 z m 4.9724,26.72668 h -4.9724 v -4.9724 h 4.9724 z"
       style="stroke-width:1.70926"
       id="path158" />
  </g>
  <g
     aria-label="abcd"
     transform="rotate(0.37912051)"
     id="text20-3"
     style="font-size:35.4914px;line-height:1.25;font-family:Digital-7;-inkscape-font-specification:Digital-7;fill:#000000;stroke-width:0.88728">
    <path
       d="M 105.93433,92.700418 V 80.633341 H 82.758442 V 71.086154 L 66.75182,86.595897 82.758442,102.14113 V 92.700418 Z M 84.000641,93.942617 V 105.12241 L 64.97725,86.595897 84.000641,68.069385 v 11.321757 h 23.211379 v 14.551475 z m 24.169649,0.922776 V 78.432874 H 84.958909 V 65.833427 L 63.593085,86.595897 84.958909,107.35837 V 94.865393 Z"
       style="font-style:normal;font-variant:normal;font-weight:normal;font-stretch:normal;font-family:'PizzaDude Pointers';-inkscape-font-specification:'PizzaDude Pointers';stroke-width:0.88728"
       id="path147" />
    <path
       d="m 133.04973,100.11812 8.51793,-8.517936 -16.00662,-16.042113 6.74337,-6.743367 h -22.04016 v 22.004669 l 6.74336,-6.672383 z m -16.04212,-14.232051 -7.98556,7.914582 V 67.572505 h 26.29913 l -8.02106,7.985566 16.00662,16.042113 -10.25701,10.257016 z m 16.04212,17.319801 11.60569,-11.605686 -16.04212,-16.042113 8.94384,-8.943834 h -29.45787 v 29.457864 l 8.90834,-8.872851 z"
       style="font-style:normal;font-variant:normal;font-weight:normal;font-stretch:normal;font-family:'PizzaDude Pointers';-inkscape-font-specification:'PizzaDude Pointers';stroke-width:0.88728"
       id="path149" />
    <path
       d="M 171.69984,84.963292 V 108.10369 H 155.26732 V 84.963292 h -12.63494 l 20.83345,-21.365824 20.79796,21.365824 z m 10.2925,-0.958268 -18.52651,-19.023391 -18.562,19.023391 h 11.28626 v 23.140396 h 14.58697 V 84.005024 Z M 169.53486,105.90322 H 157.46778 V 82.727334 h -9.58267 l 15.58072,-15.971131 15.50974,15.971131 h -9.44071 z"
       style="font-style:normal;font-variant:normal;font-weight:normal;font-stretch:normal;font-family:'PizzaDude Pointers';-inkscape-font-specification:'PizzaDude Pointers';stroke-width:0.88728"
       id="path151" />
    <path
       d="M 211.23722,87.19925 195.2306,103.20587 183.58942,91.600184 199.59604,75.558071 190.6877,66.614237 h 29.45786 v 29.457864 z m 7.95007,6.601401 V 67.572505 h -26.26363 l 8.02105,7.985566 -16.00662,16.042113 10.29251,10.257016 16.00662,-15.971131 z m -23.95669,6.317469 -8.55343,-8.517936 16.00662,-16.042113 -6.74337,-6.743367 h 22.00467 v 22.004669 l -6.70787,-6.672383 z"
       style="font-style:normal;font-variant:normal;font-weight:normal;font-stretch:normal;font-family:'PizzaDude Pointers';-inkscape-font-specification:'PizzaDude Pointers';stroke-width:0.88728"
       id="path153" />
  </g>
  <g
     aria-label="1"
     transform="rotate(0.37912051)"
     id="text20-3-0"
     style="font-size:63.9651px;line-height:1.25;font-family:Digital-7;-inkscape-font-specification:Digital-7;fill:#000000;stroke-width:1.59912">
    <path
       d="m 76.019356,141.33075 c 1.023442,0.89551 2.558604,0.63965 3.326185,-0.38379 l 0.319826,-0.31983 v 28.72033 c 0,1.27931 1.023441,2.30275 2.238778,2.30275 h 1.854988 c 1.279302,0 2.302744,-1.02344 2.302744,-2.30275 v -38.50699 c 0,-1.2793 -1.023442,-2.30274 -2.302744,-2.30274 H 81.96811 c -0.51172,0 -1.535162,0.51172 -1.791022,0.89551 l -5.884789,7.61185 c -0.767582,1.02344 -0.511721,2.49464 0.51172,3.19825 z"
       style="font-style:normal;font-variant:normal;font-weight:normal;font-stretch:normal;font-family:'Ostrich Sans';-inkscape-font-specification:'Ostrich Sans';text-align:center;text-anchor:middle;stroke-width:1.59912"
       id="path144" />
  </g>
  <g
     aria-label="2"
     transform="rotate(0.37912051)"
     id="text20-3-0-3"
     style="font-size:63.9651px;line-height:1.25;font-family:Digital-7;-inkscape-font-specification:Digital-7;fill:#000000;stroke-width:1.59912">
    <path
       d="m 137.85335,164.99682 c 0.44775,-4.34963 1.98291,-7.29203 5.05324,-9.97856 4.86135,-4.34963 7.22806,-9.40287 7.22806,-15.28766 0,-6.5884 -3.39015,-11.51372 -9.40287,-11.51372 -6.33255,0 -9.46684,4.28567 -9.46684,11.70562 v 0.38379 c 0,1.21533 1.02344,2.23878 2.30274,2.23878 h 1.85499 c 1.21534,0 2.23878,-1.02345 2.23878,-2.23878 v -0.38379 c 0,-3.70998 1.02344,-5.37307 3.07033,-5.37307 1.91895,0 3.00636,2.04688 3.00636,5.18117 0,3.77394 -1.85499,7.41995 -5.11721,10.49028 -2.68654,2.49464 -4.73342,5.37307 -5.88479,8.50736 l 0.064,-0.064 c -1.02344,2.7505 -1.53516,5.82083 -1.53516,9.46684 v 0.89551 c 0,1.2793 1.02344,2.30274 2.30274,2.30274 h 14.26422 c 1.2793,0 2.30275,-1.02344 2.30275,-2.30274 v -1.72706 c 0,-1.2793 -1.02345,-2.30274 -2.30275,-2.30274 z"
       style="font-style:normal;font-variant:normal;font-weight:normal;font-stretch:normal;font-family:'Ostrich Sans';-inkscape-font-specification:'Ostrich Sans';text-align:center;text-anchor:middle;stroke-width:1.59912"
       id="path141" />
  </g>
  <g
     aria-label="3"
     transform="rotate(0.37912051)"
     id="text20-3-0-3-5"
     style="font-size:63.9651px;line-height:1.25;font-family:Digital-7;-inkscape-font-specification:Digital-7;fill:#000000;stroke-width:1.59912">
    <path
       d="m 194.27969,157.67393 c 0,7.86771 3.19825,12.4732 9.46683,12.4732 5.6929,0 9.40287,-4.66946 9.40287,-12.21734 0,-4.79738 -1.98291,-7.67581 -3.64601,-9.27494 1.6631,-1.66309 3.64601,-4.60549 3.64601,-9.3389 0,-3.39015 -0.63965,-6.07669 -2.11084,-8.18754 l 0.064,0.064 c -1.72706,-2.81446 -4.15773,-4.15773 -7.35599,-4.15773 -6.26858,0 -9.46683,4.60549 -9.46683,12.53716 v 0.31982 c 0,1.27931 1.02344,2.30275 2.30274,2.30275 h 1.85499 c 1.21534,0 2.23878,-1.02344 2.23878,-2.30275 v -0.31982 c 0,-4.15773 1.08741,-6.20462 3.07032,-6.20462 0.76758,0 1.4712,0.38379 1.91896,1.15137 0.76758,1.15138 1.0874,2.7505 1.0874,4.79739 0,2.23878 -0.70361,3.77394 -1.72705,4.73341 h 0.064 c -0.89551,0.95948 -1.98292,1.40724 -2.81446,1.40724 h -0.83155 c -1.2793,0 -2.30274,1.02344 -2.30274,2.30274 v 1.72706 c 0,1.2793 1.02344,2.30274 2.30274,2.30274 h 0.83155 c 0.63965,0 1.72705,0.31983 2.7505,1.34327 0.76758,0.70361 1.72705,2.17481 1.72705,4.79738 0,1.02344 -0.12793,1.98292 -0.25586,2.81447 -0.31982,1.2793 -1.02344,3.07032 -2.7505,3.07032 -1.98291,0 -3.07032,-1.85499 -3.07032,-6.14065 v -0.31982 c 0,-1.27931 -1.02344,-2.30275 -2.23878,-2.30275 h -1.85499 c -1.2793,0 -2.30274,1.02344 -2.30274,2.30275 z"
       style="font-style:normal;font-variant:normal;font-weight:normal;font-stretch:normal;font-family:'Ostrich Sans';-inkscape-font-specification:'Ostrich Sans';text-align:center;text-anchor:middle;stroke-width:1.59912"
       id="path138" />
  </g>
  <g
     aria-label="4"
     transform="rotate(0.37912051)"
     id="text20-3-0-6"
     style="font-size:63.9651px;line-height:1.25;font-family:Digital-7;-inkscape-font-specification:Digital-7;fill:#000000;stroke-width:1.59912">
    <path
       d="m 83.469036,219.7318 v 9.46683 c 0,1.2793 1.023442,2.30274 2.302744,2.30274 h 1.791022 c 1.279302,0 2.302744,-1.02344 2.302744,-2.30274 v -38.50699 c 0,-1.2793 -1.023442,-2.30274 -2.302744,-2.30274 h -1.727057 c -0.639651,0 -1.663093,0.63965 -1.982918,1.21533 L 70.10033,215.12631 v 2.30274 c 0,1.2793 1.023442,2.30275 2.302744,2.30275 z m 0,-6.33255 h -5.884789 l 5.948754,-10.36235 z"
       style="font-style:normal;font-variant:normal;font-weight:normal;font-stretch:normal;font-family:'Ostrich Sans';-inkscape-font-specification:'Ostrich Sans';text-align:center;text-anchor:middle;stroke-width:1.59912"
       id="path135" />
  </g>
  <g
     aria-label="5"
     transform="rotate(0.37912051)"
     id="text20-3-0-3-9"
     style="font-size:63.9651px;line-height:1.25;font-family:Digital-7;-inkscape-font-specification:Digital-7;fill:#000000;stroke-width:1.59912">
    <path
       d="m 131.35862,212.05496 c 0,1.2793 1.02344,2.30275 2.30275,2.30275 h 1.85498 c 1.21534,0 2.30275,-1.02345 2.30275,-2.30275 0,-2.11085 1.21533,-3.07032 3.00636,-3.07032 2.04688,0 3.00636,1.72705 3.00636,5.75686 v 4.09376 c 0,1.02344 -0.12793,1.91896 -0.25586,2.7505 -0.31983,1.2793 -0.83155,3.26222 -2.7505,3.26222 -1.72706,0 -3.00636,-0.57568 -3.00636,-4.73342 v -0.25586 c 0,-1.21533 -1.08741,-2.23877 -2.30275,-2.23877 h -1.85498 c -1.27931,0 -2.30275,1.02344 -2.30275,2.23877 v 0.25586 c 0,7.73978 3.19826,11.06597 9.46684,11.06597 3.19825,0 5.56496,-1.34327 7.35598,-4.2217 1.34327,-2.11085 2.04689,-5.05324 2.04689,-8.12357 v -4.09376 c 0,-3.58205 -0.31983,-6.46048 -1.79103,-8.57133 -1.79102,-2.43067 -3.45411,-3.58204 -7.41995,-3.58204 -1.21533,0 -3.00636,0.95947 -3.19825,1.53516 v -9.7227 h 10.17045 c 1.21534,0 2.23878,-1.02344 2.23878,-2.30274 v -1.72706 c 0,-1.2793 -1.02344,-2.30274 -2.23878,-2.30274 h -14.32818 c -1.27931,0 -2.30275,1.02344 -2.30275,2.30274 z"
       style="font-style:normal;font-variant:normal;font-weight:normal;font-stretch:normal;font-family:'Ostrich Sans';-inkscape-font-specification:'Ostrich Sans';text-align:center;text-anchor:middle;stroke-width:1.59912"
       id="path132" />
  </g>
  <g
     aria-label="6"
     transform="rotate(0.37912051)"
     id="text20-3-0-3-5-0"
     style="font-size:63.9651px;line-height:1.25;font-family:Digital-7;-inkscape-font-specification:Digital-7;fill:#000000;stroke-width:1.59912">
    <path
       d="m 193.8936,218.67647 c 0,7.16409 3.51808,11.32182 9.46683,11.32182 3.19826,0 5.62893,-1.4712 7.35599,-4.34963 1.34327,-2.17481 2.04688,-5.05324 2.04688,-8.25149 v -3.58205 c 0,-7.48392 -2.5586,-12.34526 -8.63528,-12.34526 -1.59913,0 -3.19826,0.63965 -3.77394,1.72705 v -0.12793 c 0,-1.85498 -0.12794,-5.56496 0.51172,-7.48391 0.44775,-1.34327 1.40723,-2.36671 2.49463,-2.36671 1.91896,0 3.00636,1.59913 3.00636,4.60549 v 0.064 c 0,1.21534 1.02345,2.30274 2.30275,2.30274 h 1.85499 c 1.21533,0 2.23877,-1.0874 2.23877,-2.30274 v -0.064 c 0,-6.65237 -3.13429,-10.93804 -9.40287,-10.93804 -1.85498,0 -4.34962,0.57569 -6.33254,3.00636 -1.72706,2.11085 -3.13429,5.82083 -3.13429,11.89751 z m 6.46048,-4.92531 c 0,-3.58205 1.02344,-5.94876 3.00635,-5.94876 1.98292,0 3.00636,1.85499 3.00636,6.01272 v 3.58205 c 0,1.02344 -0.12793,2.11084 -0.25586,2.94239 -0.31982,1.34327 -1.02344,3.32619 -2.7505,3.32619 -1.21533,0 -1.98291,-0.57569 -2.3667,-1.40724 -0.57569,-1.0874 -0.63965,-2.49463 -0.63965,-3.58204 z"
       style="font-style:normal;font-variant:normal;font-weight:normal;font-stretch:normal;font-family:'Ostrich Sans';-inkscape-font-specification:'Ostrich Sans';text-align:center;text-anchor:middle;stroke-width:1.59912"
       id="path129" />
  </g>
  <g
     aria-label="7"
     transform="rotate(0.37912051)"
     id="text20-3-0-6-6"
     style="font-size:63.9651px;line-height:1.25;font-family:Digital-7;-inkscape-font-specification:Digital-7;fill:#000000;stroke-width:1.59912">
    <path
       d="m 93.61952,252.4371 v -2.17481 c 0,-1.2793 -1.023442,-2.30275 -2.302744,-2.30275 H 72.255177 c -1.215337,0 -2.238779,1.02345 -2.238779,2.30275 v 1.72706 c 0,1.2793 1.023442,2.30274 2.238779,2.30274 h 13.688531 l -14.072322,33.64564 c -0.639651,1.59913 0.383791,3.13429 2.110848,3.13429 h 1.982918 c 0.767582,0 1.791023,-0.70361 2.110849,-1.40723 z"
       style="font-style:normal;font-variant:normal;font-weight:normal;font-stretch:normal;font-family:'Ostrich Sans';-inkscape-font-specification:'Ostrich Sans';text-align:center;text-anchor:middle;stroke-width:1.59912"
       id="path126" />
  </g>
  <g
     aria-label="8"
     transform="rotate(0.37912051)"
     id="text20-3-0-3-9-2"
     style="font-size:63.9651px;line-height:1.25;font-family:Digital-7;-inkscape-font-specification:Digital-7;fill:#000000;stroke-width:1.59912">
    <path
       d="m 150.14436,268.8751 c 1.47119,-2.04689 2.30274,-4.98928 2.30274,-8.89115 0,-8.31547 -3.07033,-12.34527 -10.04252,-12.34527 -7.03616,0 -10.04252,4.2217 -10.04252,12.34527 0,3.77394 0.83154,6.7803 2.30274,8.82718 l 0.31983,0.38379 c -0.064,0.064 -0.25586,0.25586 -0.31983,0.38379 -1.4712,2.04688 -2.30274,5.05324 -2.30274,8.82719 0,8.12356 3.00636,12.34526 10.04252,12.34526 6.97219,0 10.04252,-4.0298 10.04252,-12.34526 0,-3.90188 -0.83155,-6.84427 -2.30274,-8.89115 l -0.25586,-0.31983 z m -10.42632,-3.83791 c -0.63965,-0.95948 -0.95947,-2.5586 -0.95947,-5.05324 0,-4.28566 1.15137,-6.01272 3.64601,-6.01272 2.5586,0 3.64601,1.72706 3.64601,6.01272 0,4.28566 -1.08741,6.01272 -3.64601,6.01272 -1.2793,0 -2.17481,-0.31983 -2.68654,-0.95948 z m 5.30911,18.42195 c -0.44776,0.57568 -1.2793,0.95947 -2.62257,0.95947 -2.49464,0 -3.64601,-1.72705 -3.64601,-6.01271 0,-4.34963 1.15137,-6.07669 3.64601,-6.07669 2.5586,0 3.64601,1.72706 3.64601,6.07669 0,2.43067 -0.31983,4.09376 -1.02344,5.05324 z"
       style="font-style:normal;font-variant:normal;font-weight:normal;font-stretch:normal;font-family:'Ostrich Sans';-inkscape-font-specification:'Ostrich Sans';text-align:center;text-anchor:middle;stroke-width:1.59912"
       id="path123" />
  </g>
  <g
     aria-label="9"
     transform="rotate(0.37912051)"
     id="text20-3-0-3-5-0-3"
     style="font-size:63.9651px;line-height:1.25;font-family:Digital-7;-inkscape-font-specification:Digital-7;fill:#000000;stroke-width:1.59912">
    <path
       d="m 214.66227,257.77828 c 0,-7.16409 -3.51808,-11.32182 -9.46684,-11.32182 -3.19825,0 -5.62893,1.4712 -7.35598,4.34963 -1.34327,2.17481 -2.04689,5.05324 -2.04689,8.2515 v 3.58204 c 0,7.48392 2.55861,12.34527 8.63529,12.34527 1.59913,0 3.19826,-0.63965 3.77394,-1.72706 v 0.12793 c 0,1.85499 0.12793,5.56496 -0.51172,7.48392 -0.44775,1.34326 -1.40723,2.3667 -2.49464,2.3667 -1.91895,0 -3.00636,-1.59912 -3.00636,-4.60548 v -0.064 c 0,-1.21533 -1.02344,-2.30274 -2.30274,-2.30274 h -1.85499 c -1.21534,0 -2.23878,1.08741 -2.23878,2.30274 v 0.064 c 0,6.65237 3.13429,10.93803 9.40287,10.93803 1.85499,0 4.34963,-0.57569 6.33255,-3.00636 1.72705,-2.11085 3.13429,-5.82082 3.13429,-11.89751 z m -6.46048,4.92532 c 0,3.58204 -1.02344,5.94875 -3.00636,5.94875 -1.98292,0 -3.00636,-1.85499 -3.00636,-6.01272 v -3.58204 c 0,-1.02344 0.12793,-2.11085 0.25586,-2.9424 0.31983,-1.34326 1.02344,-3.32618 2.7505,-3.32618 1.21534,0 1.98292,0.57568 2.36671,1.40723 0.57569,1.08741 0.63965,2.49464 0.63965,3.58204 z"
       style="font-style:normal;font-variant:normal;font-weight:normal;font-stretch:normal;font-family:'Ostrich Sans';-inkscape-font-specification:'Ostrich Sans';text-align:center;text-anchor:middle;stroke-width:1.59912"
       id="path120" />
  </g>
</svg>
